<?xml version="1.0" standalone="no"?>
<!DOCTYPE svg PUBLIC "-//W3C//DTD SVG 20010904//EN"
 "http://www.w3.org/TR/2001/REC-SVG-20010904/DTD/svg10.dtd">
<svg version="1.0" xmlns="http://www.w3.org/2000/svg"
 width="425.000000pt" height="425.000000pt" viewBox="0 0 425.000000 425.000000"
 preserveAspectRatio="xMidYMid meet">
<metadata>
Created by potrace 1.14, written by Peter Selinger 2001-2017
</metadata>
<g transform="translate(0.000000,425.000000) scale(0.100000,-0.100000)"
fill="#000000" stroke="none">
<path d="M730 2593 c-8 -2 -37 -13 -63 -24 -27 -12 -57 -17 -69 -14 -16 6 -19
3 -14 -12 3 -10 7 -33 8 -51 3 -36 5 -38 102 -46 39 -3 68 0 85 9 15 7 50 15
79 16 42 2 56 -1 75 -19 26 -24 48 -27 78 -11 15 8 24 7 36 -2 13 -11 18 -10
29 6 8 10 14 23 14 28 0 13 133 -2 143 -17 4 -6 5 -31 2 -54 -5 -32 -2 -48 9
-61 15 -16 15 -19 -3 -35 -11 -10 -17 -25 -14 -37 3 -10 0 -19 -6 -19 -17 0
-13 -35 8 -77 25 -47 23 -169 -3 -208 -15 -23 -15 -28 -1 -55 14 -27 14 -30 0
-30 -12 0 -15 -6 -10 -20 9 -29 -24 -112 -42 -106 -8 3 -27 -1 -42 -9 -34 -17
-140 -12 -153 7 -6 10 -12 10 -26 2 -10 -7 -30 -10 -45 -7 -15 3 -34 0 -42 -7
-9 -7 -17 -11 -19 -9 -1 2 -15 26 -29 53 -20 36 -24 52 -16 62 7 9 3 23 -17
53 -27 41 -28 61 -8 129 5 16 2 22 -9 22 -20 0 -30 33 -23 75 4 18 2 52 -3 76
-6 28 -6 61 0 93 9 49 8 52 -18 73 l-27 22 -32 -19 c-17 -11 -43 -20 -58 -20
-30 0 -32 -7 -10 -31 13 -14 14 -23 4 -57 -10 -31 -10 -44 1 -63 9 -15 14 -62
15 -124 2 -120 10 -163 36 -191 17 -19 17 -22 3 -34 -19 -16 -19 -64 0 -80 8
-7 15 -18 15 -25 0 -6 9 -42 21 -78 20 -64 22 -67 47 -61 34 8 34 8 52 1 38
-14 95 -15 146 -1 39 10 60 11 69 4 9 -7 16 -6 26 6 9 11 22 14 45 9 19 -3 35
-1 39 5 5 8 11 8 20 0 9 -7 27 -9 46 -5 21 5 34 3 40 -6 9 -16 35 -5 97 40 43
32 51 55 32 92 -8 15 -7 23 5 35 21 21 19 83 -4 117 -19 29 -18 29 5 70 29 51
30 64 4 85 -19 16 -19 20 -5 72 18 66 19 110 3 145 -10 22 -8 28 10 48 25 27
30 88 8 106 -9 8 -11 22 -6 50 4 25 2 51 -7 74 l-15 36 -51 -6 c-29 -3 -65
-11 -82 -17 -20 -8 -52 -9 -100 -3 -81 10 -113 10 -176 2 -36 -5 -53 -2 -80
14 -32 20 -93 27 -129 14z"/>
<path d="M3605 2340 c-3 -5 -18 -10 -33 -10 -15 0 -38 -7 -50 -16 -17 -12 -26
-13 -36 -5 -7 6 -21 9 -30 5 -9 -3 -22 -1 -30 5 -10 8 -24 7 -56 -4 -31 -11
-46 -12 -56 -4 -15 12 -58 -12 -70 -39 -8 -21 -23 -91 -31 -154 -4 -39 -2 -49
11 -54 12 -5 15 -14 11 -38 -6 -33 4 -98 29 -183 14 -48 13 -54 -5 -89 -27
-54 -25 -88 6 -102 15 -7 25 -20 25 -32 0 -16 7 -20 34 -20 19 0 48 8 64 17
26 15 37 16 73 6 34 -9 50 -9 75 2 20 8 35 10 41 4 6 -6 20 -1 37 12 14 11 34
18 42 15 9 -3 25 -1 36 5 11 6 35 11 53 11 29 0 34 5 58 53 l25 52 -40 12
c-47 14 -118 6 -118 -14 0 -22 -15 -25 -48 -13 -27 10 -37 9 -80 -15 -55 -30
-74 -32 -121 -16 -29 10 -31 14 -31 59 0 27 -5 61 -11 76 -5 16 -10 55 -10 88
-1 37 -7 71 -16 88 -15 24 -15 28 2 54 16 25 16 28 2 39 -14 10 -14 15 6 47
18 30 26 34 43 28 12 -5 25 -13 29 -19 4 -7 16 -6 37 5 26 13 36 14 51 4 16
-9 23 -8 42 10 l23 21 6 -34 c4 -19 15 -42 26 -52 27 -24 26 -29 -17 -76 -37
-41 -38 -41 -93 -35 -43 5 -60 2 -77 -12 l-23 -17 21 -43 22 -43 117 4 c73 3
125 10 138 18 23 15 29 34 12 44 -6 4 -3 20 9 43 24 47 38 132 22 132 -20 0
-13 82 9 105 l21 22 -38 33 c-31 28 -39 31 -41 17 -4 -21 -21 -21 -46 -2 -23
17 -42 19 -51 5z"/>
<path d="M1868 2324 c-2 -11 -16 -18 -42 -20 -21 -2 -48 -9 -60 -17 -15 -10
-29 -11 -49 -4 -22 7 -32 5 -46 -7 -17 -16 -19 -16 -25 0 -6 15 -11 13 -40
-15 -34 -33 -51 -78 -36 -96 23 -29 29 -159 10 -225 -7 -23 -4 -38 8 -60 16
-29 16 -32 -4 -68 -17 -31 -18 -43 -10 -75 7 -28 7 -44 -3 -59 -12 -19 -9 -27
45 -97 2 -2 17 2 34 9 27 11 30 17 30 58 0 28 6 52 17 64 15 17 15 19 -1 36
-15 18 -15 20 4 37 18 16 19 20 5 35 -11 12 -12 19 -3 28 9 9 8 25 -2 66 -11
45 -11 58 0 71 10 12 10 18 1 29 -10 11 -9 21 4 45 14 28 14 33 0 54 -14 22
-14 25 2 39 32 28 67 42 101 39 17 -1 32 3 32 9 0 15 36 12 50 -5 9 -11 17
-12 30 -5 25 13 22 14 65 -20 26 -21 42 -27 54 -21 9 4 37 11 63 14 27 4 59 9
73 13 21 5 25 3 25 -16 0 -12 9 -35 20 -51 18 -24 19 -31 8 -49 -11 -17 -11
-22 0 -29 10 -6 12 -25 7 -77 -6 -61 -4 -77 20 -137 17 -42 25 -76 21 -91 -3
-13 -2 -26 2 -28 4 -2 15 -21 23 -43 12 -33 20 -41 45 -43 26 -3 32 2 47 33
27 56 33 113 13 121 -17 6 -18 13 -17 137 0 26 -3 47 -7 47 -4 0 -13 4 -21 9
-11 7 -10 14 7 39 23 31 20 42 -11 42 -14 0 -17 4 -12 18 31 73 31 74 8 89
-21 14 -21 16 -6 40 16 24 16 26 -1 35 -12 7 -16 17 -12 34 5 20 -1 28 -36 50
-23 15 -44 22 -45 17 -3 -7 -17 -8 -41 -2 -31 7 -39 5 -53 -12 -15 -20 -18
-20 -66 -6 -37 11 -54 12 -62 4 -8 -8 -17 -5 -35 12 -23 21 -26 22 -54 7 -26
-14 -31 -14 -42 -1 -16 19 -28 19 -32 -1z"/>
<path d="M2767 2314 c-15 -8 -25 -19 -22 -23 3 -5 -7 -12 -23 -16 -78 -20
-126 -24 -154 -11 -12 5 -18 4 -18 -4 0 -6 -9 -23 -19 -37 -28 -34 -17 -51 37
-59 26 -4 57 -11 70 -15 12 -5 22 -5 22 0 0 4 17 16 39 25 31 14 43 16 60 6
12 -6 30 -8 41 -5 26 8 60 -11 60 -34 0 -10 7 -35 15 -55 9 -20 13 -47 9 -60
-4 -18 -1 -25 12 -28 15 -3 19 -14 20 -58 1 -32 -4 -63 -12 -75 -8 -11 -14
-32 -14 -47 0 -26 -3 -28 -37 -28 -20 0 -44 -7 -54 -16 -10 -9 -35 -18 -56
-21 -34 -4 -42 -1 -73 32 l-35 36 33 63 c30 58 37 65 77 76 55 15 79 40 69 72
-10 32 -33 47 -75 48 -24 0 -42 -7 -54 -20 -13 -14 -31 -20 -62 -20 -30 0 -49
-6 -63 -20 -15 -15 -27 -19 -47 -14 -26 7 -26 7 -19 -36 4 -23 13 -52 21 -63
10 -15 11 -25 4 -39 -7 -13 -7 -23 1 -32 6 -8 12 -37 14 -66 2 -40 8 -58 24
-71 12 -9 22 -26 22 -38 0 -15 10 -23 36 -30 31 -8 46 -6 95 14 33 13 59 19
59 14 0 -5 7 -9 15 -9 24 0 65 22 65 35 0 12 30 25 56 25 7 0 36 -18 65 -40
30 -22 60 -40 69 -40 8 0 25 16 38 36 19 30 22 43 16 82 -4 26 -18 66 -30 91
-14 25 -24 61 -24 85 0 23 -6 52 -13 66 -20 39 -28 89 -17 110 7 13 5 31 -4
58 -11 31 -12 42 -3 45 7 2 -3 21 -25 45 -21 23 -38 49 -38 58 0 13 -7 15 -30
11 -16 -4 -32 -2 -35 3 -9 15 -76 11 -108 -6z"/>
<path d="M1932 2094 c-22 -15 -35 -84 -18 -90 16 -6 13 -272 -3 -301 -10 -21
-8 -26 25 -55 45 -40 83 -53 102 -35 16 16 24 174 10 200 -7 13 -5 30 5 55 12
32 12 46 1 102 -8 36 -11 72 -9 81 11 35 -78 68 -113 43z"/>
</g>
</svg>
